<?xml version="1.0" standalone="no"?>
<!DOCTYPE svg PUBLIC "-//W3C//DTD SVG 20010904//EN"
 "http://www.w3.org/TR/2001/REC-SVG-20010904/DTD/svg10.dtd">
<svg version="1.0" xmlns="http://www.w3.org/2000/svg"
 width="1024.000000pt" height="1024.000000pt" viewBox="0 0 1024.000000 1024.000000"
 preserveAspectRatio="xMidYMid meet">
<metadata>
Created by potrace 1.14, written by Peter Selinger 2001-2017
</metadata>
<g transform="translate(0.000000,1024.000000) scale(0.100000,-0.100000)"
fill="#000000" stroke="none">
<path d="M6610 10213 c-152 -14 -311 -45 -558 -108 -158 -40 -390 -99 -515
-130 -126 -32 -222 -62 -215 -65 7 -4 44 -10 82 -14 54 -5 108 -1 234 20 l164
27 157 -28 c86 -15 254 -46 375 -69 l218 -42 82 18 c68 15 96 16 171 8 169
-18 276 -64 373 -161 l59 -59 149 -15 c194 -18 268 -45 385 -138 162 -129 332
-469 375 -748 32 -212 -6 -503 -95 -726 -84 -213 -248 -451 -428 -624 -61 -59
-548 -418 -982 -724 -140 -98 -291 -210 -335 -248 -45 -37 -112 -92 -151 -121
-66 -51 -838 -513 -1285 -771 -258 -149 -410 -247 -525 -340 -118 -96 -140
-126 -138 -188 4 -97 64 -183 184 -262 89 -60 178 -96 619 -253 685 -244 1289
-485 1469 -587 46 -26 122 -63 170 -82 327 -130 608 -311 767 -493 162 -187
241 -368 263 -604 22 -233 -34 -399 -208 -609 -163 -198 -424 -383 -826 -587
-660 -333 -1626 -649 -2895 -945 -135 -32 -251 -61 -258 -65 -8 -4 -47 -87
-88 -186 -65 -158 -80 -184 -122 -225 l-48 -46 66 -7 c159 -15 388 -3 575 31
122 21 4687 1194 4797 1232 587 201 1071 632 1334 1186 99 211 161 409 201
643 28 166 25 553 -5 723 -27 151 -1187 4675 -1237 4825 -160 480 -489 904
-920 1187 -304 199 -679 331 -1044 367 -96 9 -310 11 -391 3z"/>
<path d="M1974 9060 c-378 -98 -478 -132 -670 -226 -451 -220 -827 -600 -1049
-1059 -155 -320 -228 -640 -229 -995 0 -192 11 -307 46 -470 32 -152 1165
-4563 1204 -4688 101 -325 280 -632 513 -882 60 -65 60 -65 78 -44 10 12 47
40 81 64 35 23 94 68 131 100 69 59 315 251 452 352 72 53 130 119 159 183 11
24 14 145 16 630 1 330 7 679 13 775 20 297 52 522 86 604 21 50 11 210 -16
248 -17 24 -19 46 -19 185 0 228 -29 323 -128 415 -53 50 -100 77 -200 114
-144 55 -214 111 -263 210 -26 52 -33 81 -36 142 -4 72 -3 80 25 123 56 87
234 215 522 377 80 45 150 85 157 90 7 4 27 115 48 267 20 143 70 489 111 769
l76 510 -24 80 c-19 69 -23 102 -22 221 1 169 21 287 74 448 83 247 180 391
463 685 216 223 261 297 223 370 -27 51 -67 66 -176 65 -155 -2 -328 -39 -685
-148 -356 -108 -508 -142 -675 -151 -89 -5 -110 -3 -140 13 -51 26 -56 52 -43
211 16 188 23 204 126 302 85 81 116 119 136 173 9 23 8 27 -7 26 -9 0 -170
-40 -358 -89z"/>
<path d="M5030 8819 c-244 -30 -353 -96 -425 -253 -62 -137 -154 -452 -174
-601 -16 -117 -31 -424 -24 -518 l5 -82 -56 -110 c-30 -60 -65 -127 -77 -148
-23 -37 -23 -38 -7 -122 l17 -84 -44 -194 c-56 -254 -96 -494 -98 -587 -1
-126 41 -180 140 -180 111 0 297 111 1398 835 303 198 567 371 587 384 35 21
289 324 411 490 116 158 167 276 167 385 0 172 -105 328 -298 442 -85 49 -329
133 -522 179 -131 31 -363 89 -560 140 -120 31 -148 35 -255 34 -66 -1 -149
-5 -185 -10z"/>
<path d="M3993 3908 c-133 -35 -245 -383 -282 -873 -58 -763 -95 -1172 -111
-1250 -55 -257 -55 -310 -4 -334 22 -10 67 -1 315 64 160 42 310 75 336 75
101 1 180 19 244 56 82 48 222 114 720 339 646 291 777 357 943 475 89 63 179
150 213 208 29 47 30 118 3 171 -27 54 -103 119 -239 205 -410 259 -873 454
-1606 675 -108 33 -220 76 -307 117 -162 77 -183 83 -225 72z"/>
<path d="M2488 336 c-64 -17 -119 -34 -122 -37 -4 -3 42 -29 101 -57 106 -50
285 -123 291 -118 1 2 -4 21 -12 44 -8 23 -20 69 -27 102 -9 47 -18 65 -39 80
-36 26 -51 24 -192 -14z"/>
</g>
</svg>
