<?xml version="1.0" encoding="UTF-8" standalone="no"?>
<!DOCTYPE svg PUBLIC "-//W3C//DTD SVG 1.1//EN" "http://www.w3.org/Graphics/SVG/1.1/DTD/svg11.dtd">
<svg width="100%" height="100%" viewBox="0 0 277 81" version="1.1" xmlns="http://www.w3.org/2000/svg" xmlns:xlink="http://www.w3.org/1999/xlink" xml:space="preserve" xmlns:serif="http://www.serif.com/" style="fill-rule:evenodd;clip-rule:evenodd;stroke-linejoin:round;stroke-miterlimit:2;">
    <g transform="matrix(4.16667,0,0,4.16667,0,0)">
        <path d="M26.801,14.766C26.801,14.564 26.773,14.395 26.717,14.259C26.661,14.124 26.586,14.017 26.493,13.937C26.4,13.857 26.293,13.801 26.173,13.77C26.053,13.738 25.929,13.722 25.801,13.722L25.082,13.722L25.082,15.841L25.825,15.841C26.129,15.841 26.368,15.747 26.542,15.559C26.714,15.37 26.801,15.106 26.801,14.766ZM26.834,18.906L25.81,16.282L25.082,16.282L25.082,18.906L24.529,18.906L24.529,13.242L25.889,13.242C26.076,13.242 26.256,13.267 26.429,13.318C26.603,13.368 26.757,13.452 26.894,13.57C27.029,13.687 27.139,13.841 27.221,14.034C27.304,14.226 27.345,14.46 27.345,14.738C27.345,14.978 27.314,15.184 27.253,15.358C27.192,15.531 27.112,15.676 27.013,15.793C26.915,15.911 26.805,16.001 26.686,16.066C26.565,16.129 26.447,16.169 26.33,16.186L27.433,18.906L26.834,18.906Z" style="fill:rgb(217,31,61);fill-rule:nonzero;"/>
        <path d="M31.201,18.906L31.201,16.217L29.033,16.217L29.033,18.906L28.473,18.906L28.473,13.242L29.033,13.242L29.033,15.722L31.201,15.722L31.201,13.242L31.761,13.242L31.761,18.906L31.201,18.906Z" style="fill:rgb(217,31,61);fill-rule:nonzero;"/>
        <path d="M33.161,18.906L33.161,13.242L35.441,13.242L35.441,13.738L33.705,13.738L33.705,15.722L35.329,15.722L35.329,16.202L33.705,16.202L33.705,18.402L35.521,18.402L35.521,18.906L33.161,18.906Z" style="fill:rgb(217,31,61);fill-rule:nonzero;"/>
        <rect x="36.569" y="13.242" width="0.56" height="5.664" style="fill:rgb(217,31,61);fill-rule:nonzero;"/>
        <path d="M41.051,18.906L39.082,14.194L39.057,14.194L39.057,18.906L38.529,18.906L38.529,13.242L39.226,13.242L41.186,17.953L41.21,17.953L41.21,13.242L41.721,13.242L41.721,18.906L41.051,18.906Z" style="fill:rgb(217,31,61);fill-rule:nonzero;"/>
        <path d="M45.849,18.906L45.849,16.217L43.681,16.217L43.681,18.906L43.121,18.906L43.121,13.242L43.681,13.242L43.681,15.722L45.849,15.722L45.849,13.242L46.409,13.242L46.409,18.906L45.849,18.906Z" style="fill:rgb(217,31,61);fill-rule:nonzero;"/>
        <path d="M47.809,18.906L47.809,13.242L50.089,13.242L50.089,13.738L48.353,13.738L48.353,15.722L49.977,15.722L49.977,16.202L48.353,16.202L48.353,18.402L50.169,18.402L50.169,18.906L47.809,18.906Z" style="fill:rgb(217,31,61);fill-rule:nonzero;"/>
        <path d="M53.849,17.457C53.849,17.708 53.812,17.931 53.737,18.125C53.663,18.321 53.56,18.486 53.429,18.621C53.298,18.757 53.145,18.862 52.969,18.934C52.793,19.005 52.606,19.041 52.409,19.041C52.121,19.041 51.856,18.98 51.613,18.858C51.371,18.735 51.174,18.573 51.025,18.369L51.369,17.978C51.492,18.154 51.647,18.289 51.833,18.386C52.02,18.482 52.209,18.53 52.401,18.53C52.657,18.53 52.872,18.439 53.045,18.257C53.218,18.077 53.305,17.818 53.305,17.482C53.305,17.322 53.278,17.18 53.225,17.058C53.172,16.935 53.1,16.826 53.009,16.73C52.918,16.633 52.816,16.548 52.701,16.474C52.586,16.399 52.465,16.329 52.337,16.266C52.182,16.191 52.036,16.107 51.897,16.014C51.758,15.92 51.637,15.813 51.533,15.69C51.429,15.567 51.345,15.421 51.281,15.253C51.217,15.085 51.185,14.89 51.185,14.665C51.185,14.405 51.225,14.176 51.305,13.982C51.385,13.787 51.493,13.624 51.629,13.493C51.765,13.363 51.918,13.266 52.089,13.202C52.26,13.138 52.439,13.106 52.625,13.106C52.881,13.106 53.112,13.15 53.317,13.238C53.522,13.326 53.694,13.463 53.833,13.65L53.489,14.041C53.382,13.887 53.257,13.777 53.113,13.709C52.969,13.643 52.812,13.61 52.641,13.61C52.529,13.61 52.418,13.629 52.309,13.669C52.2,13.709 52.103,13.773 52.017,13.858C51.932,13.943 51.862,14.052 51.809,14.186C51.756,14.319 51.729,14.476 51.729,14.658C51.729,14.818 51.753,14.956 51.801,15.074C51.849,15.191 51.915,15.295 51.997,15.386C52.08,15.476 52.176,15.556 52.285,15.625C52.395,15.695 52.508,15.759 52.625,15.818C52.774,15.892 52.922,15.978 53.069,16.074C53.216,16.169 53.348,16.282 53.465,16.41C53.583,16.537 53.676,16.687 53.745,16.858C53.814,17.029 53.849,17.228 53.849,17.457Z" style="fill:rgb(217,31,61);fill-rule:nonzero;"/>
        <path d="M57.473,17.457C57.473,17.708 57.436,17.931 57.361,18.125C57.287,18.321 57.184,18.486 57.053,18.621C56.922,18.757 56.769,18.862 56.593,18.934C56.417,19.005 56.231,19.041 56.033,19.041C55.745,19.041 55.48,18.98 55.237,18.858C54.995,18.735 54.798,18.573 54.649,18.369L54.993,17.978C55.116,18.154 55.271,18.289 55.457,18.386C55.644,18.482 55.833,18.53 56.025,18.53C56.281,18.53 56.496,18.439 56.669,18.257C56.842,18.077 56.929,17.818 56.929,17.482C56.929,17.322 56.902,17.18 56.849,17.058C56.796,16.935 56.724,16.826 56.633,16.73C56.543,16.633 56.44,16.548 56.325,16.474C56.21,16.399 56.089,16.329 55.961,16.266C55.806,16.191 55.66,16.107 55.521,16.014C55.382,15.92 55.261,15.813 55.157,15.69C55.053,15.567 54.969,15.421 54.905,15.253C54.841,15.085 54.809,14.89 54.809,14.665C54.809,14.405 54.849,14.176 54.929,13.982C55.009,13.787 55.117,13.624 55.253,13.493C55.389,13.363 55.543,13.266 55.713,13.202C55.884,13.138 56.063,13.106 56.249,13.106C56.505,13.106 56.736,13.15 56.941,13.238C57.147,13.326 57.318,13.463 57.457,13.65L57.113,14.041C57.006,13.887 56.881,13.777 56.737,13.709C56.593,13.643 56.436,13.61 56.265,13.61C56.153,13.61 56.043,13.629 55.933,13.669C55.824,13.709 55.727,13.773 55.641,13.858C55.556,13.943 55.486,14.052 55.433,14.186C55.38,14.319 55.353,14.476 55.353,14.658C55.353,14.818 55.377,14.956 55.425,15.074C55.473,15.191 55.539,15.295 55.621,15.386C55.704,15.476 55.8,15.556 55.909,15.625C56.019,15.695 56.132,15.759 56.249,15.818C56.398,15.892 56.546,15.978 56.693,16.074C56.84,16.169 56.972,16.282 57.089,16.41C57.207,16.537 57.3,16.687 57.369,16.858C57.439,17.029 57.473,17.228 57.473,17.457Z" style="fill:rgb(217,31,61);fill-rule:nonzero;"/>
        <path d="M58.537,18.906L58.537,13.242L60.817,13.242L60.817,13.738L59.081,13.738L59.081,15.722L60.705,15.722L60.705,16.202L59.081,16.202L59.081,18.402L60.897,18.402L60.897,18.906L58.537,18.906Z" style="fill:rgb(217,31,61);fill-rule:nonzero;"/>
        <path d="M64.467,18.906L62.497,14.194L62.473,14.194L62.473,18.906L61.945,18.906L61.945,13.242L62.641,13.242L64.601,17.953L64.625,17.953L64.625,13.242L65.137,13.242L65.137,18.906L64.467,18.906Z" style="fill:rgb(217,31,61);fill-rule:nonzero;"/>
        <path d="M29.824,4.727C29.785,4.686 29.726,4.666 29.644,4.666C29.562,4.666 29.49,4.696 29.428,4.756C29.365,4.816 29.317,4.906 29.283,5.027C29.259,5.113 29.238,5.204 29.218,5.297C29.199,5.391 29.18,5.484 29.161,5.575L29.219,5.792C29.17,5.903 29.119,6.015 29.063,6.128C29.008,6.241 28.961,6.353 28.923,6.463C28.86,6.598 28.811,6.726 28.775,6.846C28.739,6.966 28.711,7.077 28.692,7.178C28.399,7.77 28.155,8.214 27.961,8.51C27.766,8.806 27.62,8.954 27.524,8.954C27.462,8.887 27.421,8.822 27.402,8.759C27.387,8.701 27.379,8.651 27.377,8.608C27.374,8.564 27.375,8.528 27.38,8.499C27.414,8.008 27.441,7.647 27.463,7.416C27.48,7.23 27.491,7.131 27.494,7.117C27.48,7.085 27.466,7.052 27.452,7.019C27.438,6.986 27.426,6.947 27.416,6.904C27.455,6.721 27.491,6.543 27.524,6.369C27.524,6.307 27.53,6.256 27.542,6.218C27.554,6.179 27.57,6.153 27.589,6.138C27.642,6.105 27.683,6.064 27.712,6.016C27.74,5.968 27.755,5.912 27.755,5.85C27.755,5.691 27.727,5.571 27.672,5.489C27.617,5.407 27.527,5.366 27.402,5.366C27.099,5.366 26.704,5.907 26.218,6.99C25.732,8.073 25.438,8.615 25.337,8.615L25.265,8.557C25.25,8.538 25.236,8.467 25.221,8.344C25.207,8.221 25.19,8.049 25.171,7.828C25.156,7.621 25.144,7.45 25.135,7.315C25.125,7.181 25.12,7.08 25.12,7.012C25.12,6.858 25.132,6.638 25.156,6.351C25.181,6.065 25.193,5.854 25.193,5.72C25.193,5.648 25.174,5.595 25.138,5.561C25.102,5.527 25.051,5.51 24.983,5.51C24.795,5.51 24.613,5.599 24.437,5.777C24.261,5.956 24.084,6.232 23.906,6.608C23.853,6.719 23.784,6.841 23.7,6.976C23.615,7.111 23.518,7.253 23.407,7.402C23.277,7.59 23.16,7.74 23.056,7.853C22.953,7.966 22.862,8.044 22.785,8.088C22.665,8.16 22.567,8.223 22.493,8.275C22.418,8.329 22.371,8.365 22.352,8.384L22.352,8.385C22.153,8.428 21.979,8.461 21.832,8.485C21.707,8.485 21.6,8.451 21.511,8.384C21.421,8.316 21.346,8.211 21.283,8.066C21.278,8.042 21.257,7.964 21.218,7.831C21.179,7.699 21.129,7.51 21.066,7.265C21.033,7.13 20.989,7.024 20.937,6.947C20.883,6.87 20.826,6.832 20.763,6.832C20.739,6.832 20.708,6.839 20.669,6.853C20.631,6.868 20.587,6.885 20.539,6.904L20.287,7.012C20.215,7.046 20.123,7.148 20.012,7.319C19.902,7.49 19.777,7.734 19.637,8.052C19.478,8.403 19.337,8.69 19.215,8.911C19.092,9.132 18.985,9.284 18.893,9.366C18.845,9.423 18.798,9.474 18.753,9.517C18.707,9.561 18.672,9.599 18.648,9.633C18.614,9.633 18.591,9.612 18.579,9.571C18.567,9.531 18.561,9.469 18.561,9.387C18.561,9.18 18.584,8.936 18.63,8.655C18.676,8.373 18.744,8.052 18.836,7.691C19.076,7.387 19.288,7.125 19.471,6.904C19.654,6.682 19.803,6.497 19.919,6.348C20.154,6.049 20.338,5.806 20.471,5.619C20.603,5.431 20.684,5.299 20.713,5.222C20.809,5.116 20.892,5.023 20.962,4.944C21.032,4.864 21.081,4.791 21.11,4.723C21.225,4.545 21.32,4.388 21.395,4.25C21.47,4.113 21.531,3.999 21.579,3.908C21.68,3.744 21.767,3.595 21.839,3.46C21.911,3.325 21.971,3.217 22.019,3.135C22.101,2.914 22.178,2.72 22.251,2.554C22.323,2.388 22.39,2.247 22.453,2.132C22.467,2.093 22.479,2.05 22.489,2.002C22.498,1.954 22.506,1.896 22.51,1.828C22.52,1.775 22.532,1.722 22.547,1.669C22.561,1.617 22.585,1.573 22.619,1.539C22.643,1.438 22.662,1.353 22.676,1.283C22.691,1.214 22.698,1.157 22.698,1.114C22.698,0.916 22.669,0.767 22.612,0.666C22.554,0.565 22.462,0.514 22.337,0.514C22.303,0.524 22.27,0.529 22.236,0.529C22.207,0.481 22.159,0.428 22.092,0.37C22.019,0.37 21.923,0.402 21.803,0.467C21.683,0.532 21.54,0.635 21.377,0.774C21.199,0.928 21.022,1.095 20.846,1.276C20.671,1.456 20.496,1.65 20.323,1.857C20.227,1.982 20.104,2.148 19.955,2.355C19.805,2.562 19.632,2.81 19.435,3.099C19.358,3.239 19.289,3.36 19.229,3.464C19.169,3.567 19.122,3.657 19.088,3.734C19.055,3.821 19.021,3.897 18.987,3.962C18.954,4.027 18.92,4.081 18.886,4.124C18.78,4.283 18.684,4.461 18.597,4.658C18.511,4.856 18.439,5.075 18.381,5.315C18.323,5.498 18.269,5.663 18.218,5.81C18.168,5.957 18.121,6.078 18.078,6.175C17.986,6.497 17.911,6.781 17.854,7.026C17.796,7.272 17.745,7.477 17.702,7.64C17.697,7.693 17.671,7.753 17.623,7.821C17.575,7.888 17.512,7.958 17.435,8.03C17.401,8.069 17.356,8.114 17.298,8.167C17.242,8.218 17.163,8.288 17.062,8.376C17.061,8.374 17.06,8.373 17.06,8.371C16.939,8.477 16.837,8.571 16.753,8.653C16.668,8.734 16.602,8.807 16.554,8.869C16.516,8.903 16.478,8.928 16.442,8.945C16.406,8.962 16.376,8.977 16.352,8.992C16.183,9.103 16.014,9.211 15.843,9.317C15.672,9.423 15.505,9.524 15.341,9.62C15.197,9.663 15.066,9.698 14.948,9.725C14.83,9.751 14.735,9.779 14.663,9.808C14.537,9.774 14.433,9.74 14.349,9.707C14.264,9.673 14.198,9.639 14.15,9.605C14.083,9.557 14.032,9.494 13.998,9.414C13.965,9.335 13.948,9.24 13.948,9.129C13.948,8.985 13.961,8.857 13.988,8.746C14.014,8.636 14.051,8.535 14.099,8.443C14.133,8.395 14.193,8.331 14.28,8.252C14.367,8.172 14.475,8.082 14.605,7.981C14.889,7.76 15.114,7.583 15.28,7.45C15.446,7.318 15.548,7.228 15.587,7.18C15.693,7.132 15.799,7.079 15.904,7.021C16.01,6.963 16.116,6.91 16.222,6.862C16.381,6.771 16.5,6.671 16.579,6.562C16.659,6.454 16.699,6.33 16.699,6.191L16.699,5.793C16.689,5.736 16.664,5.688 16.623,5.649C16.582,5.611 16.528,5.591 16.46,5.591C16.287,5.591 16.062,5.659 15.785,5.793C15.508,5.928 15.32,6.061 15.219,6.191C15.074,6.253 14.92,6.336 14.756,6.44C14.593,6.543 14.429,6.667 14.266,6.811C13.981,7.052 13.688,7.302 13.385,7.562C13.313,7.62 13.237,7.673 13.157,7.721C13.078,7.769 13.002,7.82 12.93,7.873C12.814,7.969 12.725,8.053 12.663,8.125C12.6,8.198 12.562,8.313 12.562,8.313L12.497,8.384C12.444,8.403 12.391,8.42 12.338,8.434C12.285,8.449 12.239,8.456 12.201,8.456C12.071,8.456 11.974,8.412 11.912,8.322C11.849,8.233 11.818,8.1 11.818,7.922C11.818,7.874 11.807,7.799 11.786,7.698C11.764,7.597 11.753,7.52 11.753,7.467C11.753,7.332 11.748,7.224 11.739,7.142C11.729,7.06 11.717,7.002 11.703,6.969C11.674,6.906 11.622,6.859 11.547,6.828C11.473,6.797 11.373,6.781 11.248,6.781C11.108,6.781 10.982,6.838 10.869,6.951C10.756,7.064 10.653,7.236 10.562,7.467C10.523,7.52 10.481,7.573 10.435,7.626C10.39,7.679 10.35,7.724 10.316,7.763C10.225,7.893 10.136,8.025 10.049,8.16C9.895,8.343 9.764,8.502 9.656,8.636C9.547,8.771 9.45,8.884 9.363,8.976C9.267,9.029 9.183,9.076 9.111,9.117C9.038,9.157 8.978,9.192 8.93,9.221C8.882,9.236 8.845,9.178 8.818,9.048C8.792,8.918 8.779,8.718 8.779,8.449C8.779,8.304 8.792,8.146 8.818,7.972C8.845,7.799 8.882,7.609 8.93,7.402C8.978,7.238 9.029,7.072 9.082,6.904C9.135,6.735 9.18,6.567 9.219,6.398C9.262,6.297 9.301,6.199 9.334,6.102C9.354,6.04 9.371,5.982 9.385,5.929C9.399,5.876 9.407,5.835 9.407,5.806C9.407,5.72 9.387,5.654 9.349,5.608C9.31,5.562 9.255,5.539 9.183,5.539C9.144,5.539 9.072,5.558 8.966,5.597C8.86,5.636 8.711,5.701 8.519,5.792C8.403,5.941 8.294,6.094 8.19,6.25C8.087,6.407 7.982,6.557 7.876,6.702C7.746,6.846 7.625,6.99 7.512,7.135C7.398,7.279 7.289,7.424 7.183,7.568C7.053,7.727 6.936,7.865 6.833,7.983C6.729,8.101 6.637,8.194 6.555,8.261C6.555,8.29 6.549,8.314 6.537,8.333C6.525,8.352 6.509,8.369 6.49,8.384C6.567,8.543 6.63,8.675 6.678,8.781C6.726,8.887 6.759,8.976 6.779,9.048C6.836,8.976 6.882,8.914 6.916,8.864C6.949,8.813 6.974,8.771 6.988,8.738L7.4,8.312L7.443,8.29C7.477,8.29 7.502,8.326 7.519,8.398C7.536,8.47 7.549,8.576 7.558,8.716C7.549,8.745 7.551,8.829 7.566,8.969C7.58,9.108 7.609,9.303 7.652,9.553C7.691,9.813 7.777,10.009 7.912,10.142C8.047,10.274 8.225,10.34 8.446,10.34C8.596,10.34 8.756,10.296 8.927,10.207C9.097,10.118 9.267,9.975 9.436,9.777C9.57,9.628 9.703,9.478 9.833,9.326C9.963,9.174 10.093,9.019 10.223,8.86C10.285,8.793 10.344,8.726 10.399,8.658C10.455,8.591 10.504,8.533 10.547,8.485C10.595,8.543 10.635,8.6 10.667,8.658C10.698,8.716 10.718,8.774 10.728,8.831C10.8,9.077 10.913,9.262 11.067,9.387C11.221,9.513 11.418,9.575 11.659,9.575C11.751,9.575 11.889,9.531 12.074,9.441C12.256,9.354 12.502,9.218 12.784,9.049C12.782,9.084 12.771,9.137 12.749,9.216C12.725,9.302 12.713,9.365 12.713,9.403C12.713,9.543 12.722,9.661 12.739,9.757C12.756,9.853 12.786,9.935 12.829,10.003C12.862,10.065 12.915,10.131 12.988,10.201C13.06,10.271 13.149,10.344 13.255,10.421C13.356,10.494 13.479,10.578 13.623,10.674C13.671,10.698 13.731,10.717 13.803,10.732C13.876,10.746 13.957,10.753 14.049,10.753C14.458,10.753 14.823,10.692 15.143,10.569C15.463,10.447 15.743,10.265 15.984,10.024C16.037,9.971 16.102,9.914 16.179,9.851C16.415,9.755 16.624,9.631 16.807,9.479C16.987,9.33 17.164,9.185 17.339,9.043C17.34,9.044 17.341,9.046 17.341,9.048C17.384,9.019 17.418,8.993 17.442,8.969C17.466,8.944 17.486,8.923 17.5,8.904C17.529,8.904 17.549,8.91 17.561,8.922C17.573,8.934 17.579,8.952 17.579,8.976C17.56,9.048 17.543,9.115 17.529,9.178C17.524,9.207 17.519,9.238 17.514,9.272C17.51,9.305 17.507,9.344 17.507,9.387C17.507,9.527 17.523,9.697 17.554,9.896C17.585,10.096 17.63,10.331 17.688,10.6C17.707,10.682 17.768,10.743 17.872,10.784C17.975,10.825 18.118,10.846 18.301,10.846C18.388,10.846 18.491,10.798 18.612,10.701C18.732,10.605 18.872,10.461 19.031,10.268C19.165,10.095 19.281,9.936 19.377,9.792C19.473,9.647 19.548,9.52 19.601,9.409C19.683,9.298 19.766,9.192 19.85,9.091C19.934,8.99 20.015,8.892 20.092,8.795L20.135,8.795C20.169,8.791 20.266,8.926 20.428,9.203C20.589,9.48 20.816,9.618 21.11,9.618C21.302,9.618 21.471,9.608 21.615,9.586C21.76,9.564 21.87,9.532 21.947,9.488C22.063,9.416 22.179,9.344 22.297,9.272C22.415,9.2 22.532,9.125 22.648,9.048C22.647,9.046 22.646,9.044 22.645,9.042C22.708,8.962 22.812,8.874 22.958,8.777C23.108,8.679 23.214,8.593 23.277,8.521C23.359,8.425 23.432,8.34 23.497,8.268C23.562,8.196 23.617,8.136 23.66,8.088C23.694,8.049 23.73,8.013 23.769,7.979C23.807,7.946 23.851,7.915 23.899,7.886C24.048,8.791 24.162,9.478 24.239,9.947C24.316,10.416 24.374,10.67 24.412,10.709L24.535,10.838C24.574,10.858 24.606,10.868 24.633,10.871C24.659,10.873 24.687,10.875 24.716,10.875C24.817,10.875 24.907,10.858 24.987,10.824C25.066,10.79 25.135,10.74 25.193,10.672C25.231,10.586 25.273,10.5 25.319,10.416C25.365,10.332 25.407,10.246 25.445,10.16L25.683,9.705C25.722,9.638 25.75,9.573 25.767,9.51C25.783,9.448 25.794,9.392 25.799,9.344C25.915,9.147 26.018,8.964 26.109,8.795C26.186,8.636 26.25,8.523 26.301,8.456C26.351,8.389 26.389,8.355 26.413,8.355L26.449,8.413C26.449,8.456 26.437,8.519 26.413,8.6C26.389,8.682 26.377,8.752 26.377,8.81C26.377,9.368 26.424,9.787 26.517,10.066C26.611,10.345 26.747,10.485 26.925,10.485C27.065,10.485 27.202,10.445 27.336,10.366C27.471,10.286 27.603,10.17 27.733,10.015C27.752,9.991 27.809,9.913 27.902,9.781C27.996,9.648 28.122,9.459 28.281,9.214C28.526,8.824 28.709,8.473 28.829,8.16C28.987,7.915 29.131,7.655 29.258,7.38C29.385,7.106 29.5,6.807 29.6,6.485C29.692,6.201 29.762,5.927 29.81,5.662C29.858,5.397 29.882,5.142 29.882,4.897C29.882,4.824 29.862,4.768 29.824,4.727ZM19.352,5.763C19.407,5.623 19.478,5.426 19.565,5.171C19.656,4.935 19.75,4.683 19.846,4.413C19.846,4.35 19.86,4.29 19.886,4.232C19.912,4.175 19.955,4.117 20.012,4.059C20.142,3.862 20.275,3.661 20.41,3.456C20.544,3.252 20.681,3.046 20.821,2.839C21.066,2.468 21.269,2.188 21.427,1.998C21.586,1.808 21.692,1.713 21.745,1.713C21.784,1.713 21.809,1.724 21.821,1.745C21.833,1.767 21.839,1.795 21.839,1.828C21.839,1.886 21.809,1.987 21.749,2.132C21.688,2.276 21.598,2.468 21.478,2.709C21.266,3.152 21.069,3.543 20.886,3.882C20.703,4.222 20.525,4.502 20.352,4.723C20.178,4.959 20.023,5.165 19.886,5.341C19.749,5.516 19.632,5.66 19.536,5.77C19.468,5.867 19.387,5.958 19.29,6.045L19.254,6.008C19.264,5.984 19.296,5.903 19.352,5.763Z" style="fill:rgb(217,31,61);fill-rule:nonzero;"/>
        <path d="M0.187,10.47C0.23,10.432 0.292,10.38 0.371,10.315C0.451,10.25 0.553,10.172 0.678,10.08C0.774,10.018 0.844,9.957 0.887,9.9C0.931,9.842 0.952,9.782 0.952,9.719C0.952,9.492 0.951,9.348 0.949,9.285C0.946,9.223 0.945,9.174 0.945,9.141C0.945,8.678 0.957,8.317 0.981,8.057C1.005,7.797 1.036,7.635 1.075,7.573L1.061,7.356L1.017,7.305C1.017,7.252 1.018,7.205 1.021,7.164C1.023,7.123 1.025,7.088 1.025,7.06C1.025,6.795 0.908,6.626 0.674,6.554C0.441,6.482 0.324,6.335 0.324,6.113C0.324,6.046 0.392,5.963 0.526,5.864C0.661,5.765 0.858,5.646 1.118,5.507C1.152,5.271 1.188,5.014 1.227,4.735C1.265,4.456 1.311,4.148 1.364,3.812C1.345,3.749 1.33,3.698 1.321,3.657C1.311,3.616 1.306,3.579 1.306,3.545C1.306,3.377 1.325,3.223 1.364,3.083C1.402,2.944 1.455,2.812 1.523,2.686C1.566,2.619 1.621,2.546 1.689,2.466C1.756,2.387 1.838,2.299 1.934,2.203C2.011,2.131 2.069,2.067 2.107,2.012C2.146,1.957 2.165,1.912 2.165,1.878C2.165,1.84 2.15,1.809 2.118,1.785C2.087,1.761 2.042,1.749 1.985,1.749C1.807,1.749 1.544,1.805 1.198,1.918C0.851,2.031 0.591,2.088 0.418,2.088C0.36,2.088 0.318,2.081 0.292,2.066C0.265,2.052 0.252,2.028 0.252,1.994C0.252,1.898 0.257,1.814 0.266,1.741C0.276,1.669 0.288,1.619 0.303,1.59C0.384,1.527 0.448,1.467 0.494,1.409C0.54,1.352 0.562,1.294 0.562,1.236C0.562,1.212 0.588,1.181 0.638,1.142C0.689,1.104 0.769,1.07 0.88,1.041C1.323,0.916 1.661,0.82 1.894,0.752C2.128,0.685 2.261,0.646 2.295,0.637C2.565,0.569 2.822,0.52 3.068,0.489C3.313,0.457 3.542,0.442 3.754,0.442C3.778,0.442 3.826,0.448 3.898,0.46C3.97,0.472 4.018,0.473 4.042,0.464C4.139,0.449 4.24,0.432 4.346,0.413C4.374,0.413 4.459,0.426 4.598,0.453C4.738,0.479 4.933,0.516 5.183,0.564C5.236,0.555 5.294,0.543 5.356,0.528C5.496,0.528 5.613,0.55 5.706,0.593C5.8,0.637 5.874,0.697 5.927,0.774C5.994,0.788 6.059,0.795 6.122,0.795C6.247,0.795 6.361,0.83 6.465,0.9C6.568,0.97 6.658,1.07 6.735,1.2C6.803,1.324 6.856,1.448 6.894,1.571C6.933,1.694 6.952,1.82 6.952,1.95C6.952,2.205 6.898,2.446 6.789,2.675C6.681,2.903 6.519,3.116 6.302,3.313C6.278,3.328 6.161,3.413 5.952,3.57C5.743,3.726 5.438,3.943 5.039,4.222C4.995,4.251 4.945,4.292 4.887,4.345C4.829,4.398 4.759,4.453 4.678,4.511C4.283,4.747 3.903,4.973 3.537,5.189C3.229,5.358 2.995,5.499 2.837,5.615C2.678,5.73 2.598,5.812 2.598,5.86C2.598,5.957 2.639,6.042 2.721,6.117C2.803,6.191 2.928,6.258 3.097,6.315C3.342,6.402 3.619,6.501 3.927,6.612C4.235,6.722 4.565,6.855 4.916,7.009C4.95,7.019 4.992,7.038 5.042,7.067C5.093,7.096 5.149,7.127 5.212,7.161C5.626,7.315 5.933,7.504 6.132,7.728C6.332,7.952 6.432,8.211 6.432,8.505C6.432,8.933 6.046,9.34 5.273,9.726C4.501,10.111 3.344,10.477 1.804,10.824C1.78,10.891 1.752,10.958 1.721,11.026C1.69,11.093 1.662,11.158 1.638,11.221C1.604,11.274 1.556,11.316 1.494,11.347C1.431,11.378 1.359,11.394 1.277,11.394C1.186,11.394 1.114,11.362 1.061,11.297C1.008,11.232 0.971,11.129 0.952,10.99C0.914,10.956 0.883,10.942 0.858,10.947L0.447,11.055C0.394,11.026 0.345,11.001 0.299,10.979C0.253,10.957 0.206,10.934 0.158,10.91C0.11,10.882 0.071,10.847 0.043,10.806C0.014,10.765 0,10.72 0,10.672C0,10.629 0.015,10.594 0.046,10.567C0.078,10.541 0.124,10.509 0.187,10.47ZM2.403,7.045C2.326,7.045 2.26,7.111 2.205,7.244C2.15,7.376 2.105,7.573 2.071,7.833C2.052,8.074 2.033,8.316 2.014,8.559C1.994,8.803 1.975,9.045 1.956,9.286C1.927,9.406 1.903,9.534 1.884,9.669L1.898,9.741L1.956,9.77C2.148,9.717 2.363,9.661 2.598,9.604C2.762,9.604 2.859,9.588 2.891,9.557C2.922,9.525 3.311,9.343 4.057,9.011C4.374,8.876 4.613,8.75 4.772,8.631C4.93,8.513 5.01,8.411 5.01,8.324C5.01,8.271 4.988,8.221 4.945,8.173C4.901,8.124 4.837,8.074 4.75,8.021C4.524,7.876 4.273,7.745 3.999,7.627C3.725,7.509 3.424,7.402 3.097,7.305C3.053,7.291 3.004,7.275 2.949,7.258C2.893,7.242 2.832,7.224 2.764,7.204C2.659,7.156 2.578,7.117 2.523,7.089C2.467,7.06 2.428,7.045 2.403,7.045ZM3.804,1.633C3.621,1.633 3.473,1.646 3.36,1.673C3.247,1.699 3.166,1.741 3.118,1.799C3.08,1.837 3.04,1.912 2.999,2.023C2.958,2.133 2.914,2.285 2.866,2.477C2.846,2.583 2.833,2.701 2.826,2.831C2.819,2.961 2.817,3.102 2.822,3.256C2.769,3.381 2.714,3.487 2.656,3.574L2.692,3.761C2.634,4.002 2.594,4.194 2.57,4.338C2.545,4.482 2.533,4.579 2.533,4.627C2.533,4.699 2.548,4.749 2.577,4.778C2.606,4.807 2.646,4.822 2.699,4.822C2.748,4.822 2.862,4.769 3.042,4.663C3.223,4.557 3.472,4.398 3.79,4.187C4.141,3.956 4.409,3.779 4.595,3.657C4.78,3.534 4.887,3.465 4.916,3.451C4.978,3.374 5.04,3.298 5.1,3.224C5.16,3.149 5.219,3.076 5.277,3.004C5.359,2.903 5.419,2.813 5.457,2.733C5.496,2.654 5.515,2.583 5.515,2.52C5.515,2.405 5.479,2.302 5.407,2.21C5.335,2.119 5.226,2.04 5.082,1.972C5.034,1.953 4.948,1.924 4.826,1.886C4.703,1.847 4.545,1.809 4.353,1.77C4.194,1.727 4.069,1.693 3.977,1.669C3.886,1.645 3.828,1.633 3.804,1.633Z" style="fill:rgb(217,31,61);fill-rule:nonzero;"/>
        <path d="M66.191,3.568C66.158,3.539 66.133,3.514 66.116,3.492C66.1,3.471 66.087,3.45 66.077,3.431C66.087,3.339 66.124,3.203 66.19,3.023C66.255,2.842 66.287,2.697 66.287,2.586C66.287,2.447 66.256,2.341 66.193,2.268C66.131,2.196 66.042,2.16 65.926,2.16C65.709,2.16 65.506,2.386 65.315,2.839C65.125,3.291 64.945,3.527 64.777,3.546L64.538,3.474C64.466,3.489 64.4,3.502 64.34,3.514C64.279,3.526 64.218,3.539 64.155,3.554C64.107,3.539 64.037,3.527 63.946,3.517C63.854,3.508 63.743,3.503 63.613,3.503C63.551,3.517 63.483,3.532 63.411,3.546C63.32,3.527 63.215,3.511 63.097,3.499C62.979,3.487 62.852,3.481 62.718,3.481C62.583,3.481 62.482,3.563 62.418,3.727C62.353,3.89 62.32,4.126 62.32,4.434C62.32,4.478 62.336,4.515 62.367,4.546C62.398,4.578 62.443,4.603 62.501,4.622C62.539,4.641 62.579,4.659 62.62,4.676C62.661,4.693 62.705,4.714 62.753,4.738C62.792,4.738 62.855,4.74 62.945,4.745C63.034,4.75 63.097,4.752 63.136,4.752L64.038,4.752C64.072,4.752 64.121,4.744 64.186,4.727C64.251,4.71 64.298,4.701 64.327,4.701C64.361,4.701 64.385,4.709 64.399,4.723C64.414,4.738 64.421,4.759 64.421,4.788C64.363,4.918 64.31,5.026 64.262,5.113C64.214,5.2 64.171,5.269 64.132,5.322C63.815,5.895 63.493,6.402 63.168,6.842C62.843,7.283 62.51,7.662 62.168,7.979C62.106,8.056 62.052,8.124 62.006,8.181C61.96,8.239 61.875,8.364 61.875,8.364C61.552,8.639 61.306,8.865 61.125,9.004C60.945,9.144 60.84,9.214 60.811,9.214C60.763,9.214 60.727,9.195 60.703,9.156C60.679,9.118 60.667,9.06 60.667,8.983C60.667,8.896 60.687,8.728 60.728,8.477C60.769,8.227 60.828,7.9 60.906,7.496C61.031,6.99 61.144,6.552 61.246,6.182C61.347,5.811 61.439,5.505 61.521,5.265C61.545,5.173 61.564,5.093 61.578,5.023C61.593,4.953 61.605,4.894 61.615,4.846L62.104,4.745C62.162,4.74 62.204,4.659 62.23,4.503C62.256,4.347 62.27,4.124 62.27,3.835C62.27,3.768 62.263,3.711 62.252,3.665C62.24,3.62 62.22,3.587 62.191,3.568C62.158,3.539 62.133,3.514 62.117,3.492C62.1,3.471 62.087,3.45 62.078,3.431C62.087,3.339 62.125,3.203 62.19,3.023C62.255,2.842 62.288,2.697 62.288,2.586C62.288,2.447 62.256,2.341 62.194,2.268C62.131,2.196 62.042,2.16 61.927,2.16C61.71,2.16 61.506,2.386 61.316,2.839C61.125,3.291 60.946,3.527 60.777,3.546L60.538,3.474C60.466,3.489 60.4,3.502 60.34,3.514C60.28,3.526 60.218,3.539 60.156,3.554C60.107,3.539 60.037,3.527 59.946,3.517C59.854,3.508 59.744,3.503 59.614,3.503C59.551,3.517 59.483,3.532 59.411,3.546C59.32,3.527 59.215,3.511 59.097,3.499C58.979,3.487 58.853,3.481 58.718,3.481C58.583,3.481 58.483,3.563 58.418,3.727C58.353,3.89 58.32,4.126 58.32,4.434C58.32,4.478 58.336,4.515 58.367,4.546C58.399,4.578 58.443,4.603 58.501,4.622C58.539,4.641 58.579,4.659 58.62,4.676C58.661,4.693 58.705,4.714 58.754,4.738C58.792,4.738 58.856,4.74 58.945,4.745C59.034,4.75 59.098,4.752 59.136,4.752L60.039,4.752C60.072,4.752 60.122,4.744 60.187,4.727C60.252,4.71 60.299,4.701 60.327,4.701C60.361,4.701 60.385,4.709 60.4,4.723C60.414,4.738 60.421,4.759 60.421,4.788C60.364,4.918 60.311,5.026 60.262,5.113C60.214,5.2 60.171,5.269 60.132,5.322C59.815,5.895 59.494,6.402 59.169,6.842C58.844,7.283 58.51,7.662 58.169,7.979C58.106,8.056 58.052,8.124 58.006,8.181C57.961,8.239 57.923,8.287 57.894,8.326C57.894,8.326 57.867,8.386 57.868,8.387C57.839,8.414 57.809,8.44 57.778,8.461C57.742,8.485 57.715,8.501 57.695,8.511C57.662,8.55 57.629,8.588 57.598,8.627C57.567,8.665 57.534,8.706 57.501,8.749C57.457,8.788 57.415,8.819 57.374,8.843C57.333,8.867 57.291,8.879 57.248,8.879C57.103,8.879 56.987,8.818 56.898,8.695C56.809,8.572 56.767,8.434 56.771,8.28C56.771,8.059 56.776,7.828 56.786,7.587C56.776,7.428 56.745,7.309 56.692,7.23C56.639,7.15 56.562,7.11 56.461,7.11C56.297,7.11 56.119,7.174 55.927,7.302C55.734,7.429 55.527,7.626 55.306,7.89C55.262,7.919 55.224,7.943 55.19,7.962C55.156,7.982 55.123,8.001 55.089,8.02C55.046,8.049 54.972,8.11 54.869,8.204C54.765,8.298 54.632,8.42 54.468,8.569C54.329,8.704 54.201,8.812 54.086,8.894C53.97,8.976 53.859,9.033 53.753,9.067L53.703,9.002C53.843,8.805 53.956,8.646 54.042,8.526C54.129,8.405 54.189,8.328 54.223,8.295C54.492,8.059 54.708,7.857 54.869,7.688C55.03,7.52 55.135,7.382 55.183,7.277C55.294,7.195 55.383,7.123 55.45,7.06C55.517,6.997 55.563,6.954 55.587,6.93C55.621,6.882 55.662,6.826 55.71,6.764C55.859,6.653 55.989,6.541 56.1,6.428C56.211,6.315 56.304,6.208 56.381,6.107C56.521,6.001 56.651,5.905 56.771,5.818C56.848,5.765 56.905,5.7 56.941,5.623C56.977,5.546 56.995,5.457 56.995,5.356C56.995,5.26 56.965,5.185 56.905,5.132C56.845,5.079 56.752,5.053 56.627,5.053C56.401,5.053 56.123,5.156 55.793,5.363C55.463,5.57 55.08,5.881 54.642,6.295C54.545,6.386 54.456,6.46 54.374,6.515C54.293,6.57 54.225,6.612 54.172,6.641C54.062,6.738 53.97,6.822 53.898,6.894C53.826,6.966 53.77,7.026 53.732,7.074C53.66,7.108 53.596,7.147 53.541,7.19C53.485,7.233 53.441,7.286 53.407,7.349C53.364,7.426 53.325,7.485 53.291,7.526C53.258,7.567 53.229,7.599 53.205,7.623L52.548,8.056C52.5,8.138 52.458,8.207 52.421,8.262C52.385,8.317 52.358,8.355 52.338,8.374C52.016,8.648 51.757,8.855 51.577,8.995C51.396,9.134 51.292,9.204 51.263,9.204C51.215,9.204 51.178,9.185 51.154,9.146C51.13,9.108 51.118,9.05 51.118,8.973C51.118,8.886 51.139,8.718 51.18,8.468C51.221,8.218 51.28,7.89 51.357,7.486C51.482,6.981 51.596,6.543 51.697,6.172C51.799,5.801 51.89,5.496 51.972,5.255C51.996,5.164 52.016,5.083 52.03,5.013C52.044,4.943 52.056,4.884 52.066,4.836L52.556,4.735C52.613,4.73 52.655,4.65 52.682,4.493C52.708,4.337 52.721,4.114 52.721,3.826C52.721,3.758 52.715,3.702 52.703,3.656C52.691,3.61 52.671,3.578 52.643,3.558C52.61,3.53 52.585,3.504 52.568,3.483C52.552,3.461 52.539,3.44 52.529,3.421C52.539,3.33 52.576,3.194 52.641,3.013C52.706,2.833 52.739,2.687 52.739,2.576C52.739,2.437 52.708,2.331 52.645,2.259C52.583,2.187 52.494,2.151 52.378,2.151C52.161,2.151 51.958,2.377 51.767,2.829C51.577,3.282 51.397,3.518 51.229,3.537L50.99,3.465C50.918,3.479 50.852,3.492 50.791,3.504C50.731,3.516 50.67,3.53 50.607,3.544C50.559,3.53 50.489,3.518 50.398,3.508C50.306,3.498 50.195,3.493 50.065,3.493C50.002,3.508 49.935,3.522 49.863,3.537C49.771,3.518 49.667,3.502 49.549,3.49C49.43,3.478 49.304,3.472 49.169,3.472C49.034,3.472 48.934,3.554 48.869,3.717C48.804,3.881 48.772,4.117 48.772,4.425C48.772,4.468 48.788,4.505 48.819,4.537C48.85,4.568 48.895,4.593 48.952,4.612C48.991,4.632 49.031,4.65 49.072,4.667C49.112,4.684 49.157,4.704 49.205,4.728C49.244,4.728 49.307,4.73 49.396,4.735C49.485,4.74 49.549,4.742 49.588,4.742L50.49,4.742C50.524,4.742 50.573,4.734 50.638,4.717C50.703,4.7 50.75,4.692 50.779,4.692C50.813,4.692 50.837,4.699 50.851,4.714C50.866,4.728 50.873,4.75 50.873,4.778C50.815,4.908 50.762,5.017 50.714,5.103C50.666,5.19 50.623,5.26 50.584,5.313C50.266,5.886 49.945,6.392 49.62,6.833C49.295,7.273 48.962,7.652 48.62,7.97C48.558,8.047 48.504,8.114 48.458,8.172C48.412,8.23 48.375,8.278 48.346,8.316C48.346,8.316 48.235,8.441 48.144,8.518C48.048,8.6 47.915,8.718 47.747,8.872C47.602,9.002 47.487,9.099 47.4,9.164C47.314,9.229 47.253,9.262 47.22,9.262C47.181,9.243 47.157,9.223 47.147,9.204C47.205,9.012 47.255,8.848 47.295,8.713C47.336,8.579 47.376,8.465 47.415,8.374C47.588,7.816 47.689,7.483 47.718,7.378C47.747,7.272 47.795,6.976 47.862,6.49C47.881,6.321 47.899,6.182 47.916,6.071C47.933,5.96 47.942,5.881 47.942,5.833C47.942,5.64 47.887,5.492 47.779,5.389C47.671,5.285 47.508,5.233 47.292,5.233C47.239,5.233 47.185,5.242 47.129,5.259C47.074,5.276 47.015,5.298 46.953,5.327C46.765,5.496 46.595,5.658 46.444,5.815C46.292,5.971 46.156,6.114 46.036,6.244C45.93,6.35 45.837,6.437 45.758,6.504C45.678,6.571 45.607,6.627 45.545,6.67C45.506,6.738 45.468,6.798 45.429,6.851C45.391,6.904 45.355,6.942 45.321,6.966C45.225,7.062 45.138,7.144 45.061,7.212C44.984,7.279 44.919,7.332 44.866,7.37C44.852,7.399 44.823,7.44 44.779,7.493C44.76,7.522 44.706,7.568 44.617,7.63C44.528,7.693 44.404,7.775 44.245,7.876C44.125,7.953 44.032,8.03 43.967,8.107C43.902,8.184 43.86,8.256 43.841,8.323L43.798,8.374C43.799,8.377 43.67,8.477 43.613,8.529C43.553,8.584 43.492,8.636 43.429,8.684C43.347,8.752 43.276,8.801 43.216,8.832C43.156,8.864 43.102,8.879 43.054,8.879C42.91,8.879 42.727,8.751 42.505,8.493C42.284,8.236 42.173,8.044 42.173,7.919C42.173,7.741 42.38,7.37 42.794,6.807C43.208,6.244 43.415,5.777 43.415,5.407C43.415,5.262 43.391,5.154 43.343,5.082C43.295,5.01 43.215,4.973 43.104,4.973C43.056,4.973 42.984,5.037 42.888,5.165C42.792,5.292 42.671,5.484 42.527,5.739C42.267,6.22 42.059,6.583 41.902,6.829C41.746,7.074 41.648,7.204 41.61,7.219C41.307,7.291 41.1,7.39 40.989,7.515C40.878,7.64 40.806,7.861 40.772,8.179L40.751,8.388C40.655,8.6 40.559,8.794 40.466,8.97C40.372,9.145 40.277,9.303 40.18,9.442C40.161,9.495 40.134,9.536 40.097,9.565C40.061,9.594 40.019,9.608 39.971,9.608C39.947,9.608 39.929,9.601 39.917,9.587C39.905,9.572 39.899,9.548 39.899,9.515C39.899,9.467 39.918,9.369 39.957,9.222C39.995,9.075 40.053,8.875 40.13,8.619C40.212,8.355 40.291,8.085 40.368,7.811C40.445,7.536 40.525,7.267 40.606,7.002C40.707,6.66 40.809,6.357 40.91,6.092C41.011,5.828 41.105,5.604 41.191,5.421C41.62,4.608 41.937,3.916 42.144,3.345C42.351,2.775 42.455,2.329 42.455,2.006C42.455,1.717 42.408,1.498 42.314,1.349C42.22,1.2 42.077,1.125 41.884,1.125C41.846,1.125 41.809,1.137 41.772,1.161C41.736,1.186 41.706,1.219 41.682,1.263C41.586,1.436 41.492,1.62 41.401,1.815C41.309,2.01 41.23,2.22 41.162,2.447C41.143,2.524 41.118,2.589 41.087,2.641C41.055,2.695 41.03,2.738 41.011,2.771C40.963,2.858 40.89,3.016 40.794,3.244C40.698,3.473 40.58,3.77 40.44,4.136C40.296,4.521 40.18,4.834 40.094,5.075C40.007,5.315 39.949,5.491 39.921,5.602C39.824,5.712 39.718,5.873 39.603,6.085C39.487,6.297 39.36,6.555 39.22,6.858C39.114,7.074 39.007,7.266 38.899,7.432C38.791,7.598 38.669,7.736 38.534,7.847C38.462,7.914 38.4,7.976 38.347,8.031C38.294,8.086 38.253,8.138 38.224,8.186C38.2,8.244 38.178,8.286 38.159,8.313C38.14,8.339 38.103,8.376 38.104,8.378C38.029,8.438 37.965,8.482 37.913,8.507C37.861,8.534 37.707,8.672 37.451,8.923C37.35,9.019 37.256,9.095 37.17,9.15C37.083,9.205 37.009,9.233 36.946,9.233C36.917,9.233 36.894,9.226 36.877,9.211C36.861,9.197 36.852,9.178 36.852,9.154C36.852,8.971 36.927,8.7 37.076,8.341C37.225,7.983 37.3,7.707 37.3,7.515C37.3,7.149 37.252,6.839 37.155,6.583C37.059,6.328 36.915,6.129 36.722,5.984C36.698,5.965 36.66,5.938 36.607,5.905C36.501,5.799 36.391,5.698 36.278,5.602C36.165,5.505 36.027,5.457 35.863,5.457C35.709,5.457 35.508,5.539 35.26,5.703C35.012,5.866 34.857,6.008 34.795,6.129L34.867,6.475C34.766,6.706 34.603,6.955 34.379,7.222C34.156,7.489 33.868,7.767 33.517,8.056C33.44,8.167 33.363,8.273 33.286,8.374C33.286,8.375 33.287,8.377 33.287,8.378C33.236,8.419 33.185,8.453 33.134,8.479C33.081,8.505 33.043,8.526 33.019,8.54C32.898,8.607 32.761,8.665 32.607,8.713C32.453,8.761 32.282,8.793 32.094,8.807C31.979,8.783 31.879,8.757 31.795,8.728C31.71,8.699 31.649,8.67 31.611,8.641C31.543,8.603 31.491,8.545 31.455,8.468C31.419,8.391 31.401,8.302 31.401,8.201C31.401,8.143 31.413,8.089 31.437,8.038C31.461,7.988 31.49,7.946 31.524,7.912C31.923,7.522 32.241,7.175 32.477,6.872C32.713,6.569 32.864,6.302 32.932,6.071L32.997,5.84C33.031,5.724 33.056,5.64 33.073,5.587C33.085,5.549 33.092,5.533 33.096,5.537C33.077,5.427 33.061,5.326 33.047,5.233C33.019,5.123 32.988,5.029 32.957,4.952C32.926,4.875 32.893,4.817 32.86,4.778C32.812,4.721 32.75,4.68 32.676,4.656C32.601,4.632 32.503,4.62 32.383,4.62C32.296,4.62 32.217,4.627 32.145,4.641C32.073,4.656 32.008,4.673 31.95,4.692C31.887,4.74 31.825,4.783 31.762,4.822C31.7,4.86 31.642,4.901 31.589,4.945C31.478,5.079 31.368,5.213 31.257,5.345C31.146,5.478 31.04,5.599 30.939,5.71C30.819,5.907 30.721,6.085 30.647,6.244C30.572,6.403 30.513,6.535 30.47,6.641C30.431,6.747 30.396,6.846 30.365,6.937C30.334,7.029 30.311,7.108 30.297,7.175C30.292,7.272 30.282,7.367 30.268,7.461C30.253,7.554 30.239,7.65 30.224,7.746C30.085,7.857 29.969,7.964 29.878,8.067C29.787,8.171 29.712,8.273 29.654,8.374C29.731,8.533 29.794,8.665 29.842,8.771C29.89,8.877 29.924,8.966 29.943,9.038C30.001,8.966 30.054,8.912 30.102,8.876C30.15,8.84 30.193,8.822 30.232,8.822C30.28,8.822 30.323,8.847 30.362,8.897C30.4,8.948 30.441,9.026 30.484,9.132C30.537,9.262 30.588,9.374 30.636,9.468C30.684,9.562 30.732,9.633 30.78,9.681C30.872,9.782 30.986,9.859 31.123,9.912C31.26,9.965 31.418,9.991 31.596,9.991C31.731,9.991 31.848,9.98 31.946,9.959C32.045,9.937 32.133,9.902 32.21,9.854C32.398,9.854 32.603,9.785 32.827,9.648C33.051,9.511 33.3,9.308 33.574,9.038C33.618,8.99 33.649,8.947 33.668,8.908C33.688,8.87 33.702,8.841 33.712,8.822C33.87,8.716 33.998,8.617 34.094,8.526C34.191,8.434 34.26,8.352 34.304,8.28C34.376,8.242 34.467,8.167 34.578,8.056C34.689,7.946 34.814,7.804 34.953,7.63C35.083,7.471 35.211,7.339 35.336,7.233C35.461,7.127 35.577,7.045 35.683,6.988C35.841,7.007 35.961,7.084 36.04,7.219C36.119,7.354 36.159,7.548 36.159,7.804C36.159,8.011 36.131,8.244 36.076,8.504C36.021,8.764 35.94,9.045 35.834,9.349C35.81,9.416 35.781,9.482 35.748,9.547C35.714,9.612 35.683,9.676 35.654,9.738C35.615,9.82 35.585,9.896 35.563,9.966C35.542,10.036 35.531,10.097 35.531,10.15C35.531,10.285 35.582,10.382 35.683,10.442C35.784,10.503 35.935,10.533 36.137,10.533C36.263,10.494 36.373,10.444 36.47,10.381C36.835,10.16 37.149,9.963 37.412,9.793C37.674,9.622 37.887,9.476 38.051,9.356C38.128,9.288 38.194,9.228 38.249,9.175C38.305,9.122 38.395,9.034 38.395,9.032C38.469,8.93 38.517,8.86 38.538,8.825C38.56,8.789 38.58,8.764 38.599,8.749C38.729,8.595 38.842,8.465 38.939,8.359C39.035,8.254 39.114,8.162 39.177,8.085L39.227,8.157C39.227,8.234 39.218,8.325 39.199,8.428C39.179,8.532 39.153,8.651 39.119,8.785C39.033,9.069 38.969,9.341 38.928,9.601C38.887,9.861 38.866,10.107 38.866,10.338C38.866,10.564 38.915,10.732 39.011,10.843C39.107,10.954 39.252,11.009 39.444,11.009C39.569,11.009 39.674,10.965 39.758,10.876C39.842,10.786 39.918,10.694 39.986,10.598C40.053,10.535 40.113,10.48 40.166,10.432C40.219,10.383 40.257,10.342 40.282,10.309C40.368,10.203 40.454,10.101 40.538,10.002C40.622,9.903 40.707,9.801 40.794,9.695C40.929,9.532 41.085,9.368 41.263,9.204C41.287,9.204 41.472,9.352 41.816,9.648C42.16,9.944 42.404,10.092 42.549,10.092C42.688,10.092 42.828,10.06 42.967,9.995C43.107,9.93 43.246,9.83 43.386,9.695C43.511,9.589 43.63,9.481 43.743,9.37C43.856,9.26 43.976,9.149 44.101,9.038C44.101,9.038 44.179,8.903 44.213,8.858C44.249,8.81 44.276,8.769 44.296,8.735C44.907,8.162 45.383,7.731 45.725,7.443C46.067,7.154 46.269,7.009 46.332,7.009C46.394,7.009 46.439,7.025 46.465,7.056C46.492,7.088 46.505,7.135 46.505,7.197C46.505,7.284 46.5,7.409 46.49,7.573C46.481,7.736 46.459,7.929 46.425,8.15C46.392,8.405 46.357,8.599 46.321,8.731C46.285,8.864 46.25,8.93 46.216,8.93C46.182,8.93 46.15,8.893 46.119,8.818C46.087,8.743 46.036,8.706 45.963,8.706C45.824,8.706 45.699,8.753 45.588,8.847C45.477,8.941 45.422,9.06 45.422,9.204C45.422,9.228 45.439,9.303 45.472,9.428C45.468,9.462 45.463,9.5 45.458,9.544C45.453,9.587 45.451,9.628 45.451,9.666C45.451,9.873 45.472,10.061 45.516,10.229C45.559,10.398 45.617,10.547 45.689,10.677C45.684,10.754 45.694,10.817 45.718,10.865C45.742,10.913 45.781,10.944 45.833,10.959C45.92,10.93 46.002,10.902 46.079,10.876C46.156,10.849 46.233,10.821 46.31,10.793C46.358,10.773 46.412,10.739 46.472,10.691C46.533,10.643 46.596,10.573 46.664,10.482L46.801,10.453C46.955,10.323 47.093,10.207 47.216,10.103C47.339,10 47.436,9.912 47.508,9.84C47.667,9.738 47.813,9.645 47.945,9.558C48.078,9.471 48.194,9.394 48.295,9.327C48.339,9.269 48.386,9.216 48.436,9.168C48.487,9.12 48.543,9.077 48.606,9.038C48.654,8.966 48.697,8.906 48.736,8.858C48.774,8.81 48.801,8.773 48.815,8.749C49.07,8.509 49.321,8.27 49.566,8.035C49.725,7.895 49.862,7.761 49.978,7.634C50.093,7.506 50.187,7.385 50.26,7.269L50.332,7.226C50.37,7.245 50.39,7.267 50.39,7.291C50.332,7.421 50.276,7.544 50.223,7.659C50.19,7.847 50.158,8.035 50.13,8.222C50.11,8.333 50.093,8.429 50.079,8.511C50.064,8.593 50.057,8.658 50.057,8.706C50.048,8.735 50.033,8.769 50.014,8.807C49.971,8.932 49.939,9.097 49.92,9.302C49.901,9.506 49.891,9.748 49.891,10.027C49.891,10.282 49.943,10.472 50.046,10.598C50.15,10.723 50.307,10.785 50.519,10.785C50.615,10.785 50.719,10.758 50.83,10.702C50.94,10.647 51.053,10.557 51.169,10.432C51.255,10.34 51.341,10.246 51.425,10.15C51.509,10.054 51.595,9.958 51.681,9.861C51.768,9.775 51.847,9.699 51.92,9.634C51.992,9.569 52.052,9.51 52.1,9.457C52.22,9.375 52.324,9.298 52.411,9.226C52.49,9.16 52.569,9.085 52.619,9.032C52.619,9.034 52.615,9.127 52.606,9.19C52.495,9.301 52.412,9.415 52.356,9.533C52.301,9.651 52.273,9.775 52.273,9.905C52.273,10.14 52.329,10.315 52.439,10.428C52.55,10.541 52.721,10.598 52.952,10.598C52.986,10.598 53.039,10.582 53.111,10.551C53.183,10.519 53.27,10.477 53.371,10.424C53.53,10.338 53.673,10.254 53.8,10.172C53.928,10.09 54.04,10.008 54.136,9.926C54.184,9.878 54.266,9.799 54.382,9.688C54.497,9.577 54.639,9.435 54.808,9.262C54.933,9.161 55.042,9.074 55.136,9.002C55.23,8.93 55.308,8.87 55.371,8.822C55.409,8.778 55.443,8.743 55.472,8.717C55.501,8.69 55.527,8.665 55.551,8.641C55.59,8.689 55.615,8.736 55.627,8.782C55.639,8.828 55.645,8.872 55.645,8.915C55.674,9.276 55.773,9.546 55.941,9.724C56.11,9.902 56.35,9.991 56.663,9.991C56.798,9.991 56.933,9.963 57.067,9.908C57.202,9.853 57.342,9.77 57.486,9.659C57.606,9.563 57.721,9.46 57.829,9.352C57.936,9.246 58.043,9.143 58.152,9.043C58.153,9.044 58.246,8.915 58.284,8.867C58.323,8.819 58.349,8.783 58.364,8.759C58.619,8.518 58.869,8.28 59.115,8.044C59.274,7.905 59.411,7.771 59.526,7.644C59.642,7.516 59.736,7.394 59.808,7.279L59.88,7.236C59.919,7.255 59.938,7.277 59.938,7.301C59.88,7.431 59.825,7.553 59.772,7.669C59.738,7.856 59.707,8.044 59.678,8.232C59.659,8.343 59.642,8.439 59.627,8.521C59.613,8.603 59.606,8.668 59.606,8.716C59.596,8.745 59.582,8.778 59.562,8.817C59.519,8.942 59.488,9.107 59.468,9.311C59.449,9.516 59.439,9.758 59.439,10.037C59.439,10.292 59.491,10.482 59.595,10.607C59.698,10.732 59.856,10.795 60.068,10.795C60.164,10.795 60.267,10.767 60.378,10.712C60.489,10.657 60.602,10.566 60.717,10.441C60.804,10.35 60.889,10.256 60.974,10.16C61.058,10.063 61.143,9.967 61.23,9.871C61.317,9.784 61.396,9.708 61.468,9.643C61.54,9.578 61.6,9.52 61.649,9.466C61.769,9.385 61.872,9.308 61.959,9.235C62.046,9.163 62.158,9.041 62.158,9.041C62.205,8.972 62.247,8.914 62.284,8.867C62.322,8.819 62.349,8.783 62.364,8.759C62.618,8.518 62.869,8.28 63.114,8.044C63.273,7.905 63.411,7.771 63.526,7.644C63.642,7.516 63.736,7.394 63.808,7.279L63.88,7.236C63.918,7.255 63.938,7.277 63.938,7.301C63.88,7.431 63.825,7.553 63.772,7.669C63.738,7.856 63.707,8.044 63.678,8.232C63.658,8.343 63.641,8.439 63.627,8.521C63.613,8.603 63.605,8.668 63.605,8.716C63.596,8.745 63.581,8.778 63.562,8.817C63.519,8.942 63.487,9.107 63.468,9.311C63.449,9.516 63.439,9.758 63.439,10.037C63.439,10.292 63.491,10.482 63.594,10.607C63.698,10.732 63.855,10.795 64.067,10.795C64.163,10.795 64.267,10.767 64.378,10.712C64.488,10.657 64.601,10.566 64.717,10.441C64.804,10.35 64.889,10.256 64.973,10.16C65.058,10.063 65.143,9.967 65.23,9.871C65.316,9.784 65.396,9.708 65.468,9.643C65.54,9.578 65.6,9.52 65.648,9.466C65.769,9.385 65.872,9.308 65.959,9.235C66.045,9.163 66.113,9.101 66.161,9.048L65.879,8.384C65.557,8.658 65.305,8.865 65.125,9.004C64.944,9.144 64.84,9.214 64.811,9.214C64.763,9.214 64.727,9.195 64.703,9.156C64.678,9.118 64.666,9.06 64.666,8.983C64.666,8.896 64.687,8.728 64.728,8.477C64.769,8.227 64.828,7.9 64.905,7.496C65.031,6.99 65.144,6.552 65.245,6.182C65.347,5.811 65.438,5.505 65.52,5.265C65.544,5.173 65.564,5.093 65.578,5.023C65.593,4.953 65.605,4.894 65.614,4.846L66.104,4.745C66.161,4.74 66.203,4.659 66.23,4.503C66.256,4.347 66.269,4.124 66.269,3.835C66.269,3.768 66.263,3.711 66.251,3.665C66.24,3.62 66.219,3.587 66.191,3.568ZM31.289,7.114C31.277,7.102 31.271,7.082 31.271,7.053C31.271,6.923 31.36,6.72 31.538,6.443C31.716,6.166 31.858,6.028 31.964,6.028C31.998,6.028 32.023,6.041 32.04,6.067C32.057,6.094 32.065,6.129 32.065,6.172C32.065,6.239 32.051,6.307 32.022,6.374C31.993,6.442 31.95,6.509 31.892,6.576C31.844,6.629 31.795,6.683 31.744,6.739C31.694,6.794 31.642,6.846 31.589,6.894C31.56,6.942 31.529,6.994 31.495,7.049C31.461,7.104 31.418,7.132 31.365,7.132C31.327,7.132 31.301,7.126 31.289,7.114Z" style="fill:rgb(217,31,61);fill-rule:nonzero;"/>
    </g>
</svg>
